<?xml version="1.0" encoding="UTF-8"?>
<svg width="120.0mm" height="120.0mm" version="1.1" viewBox="1.2 1.2 120 120" xmlns="http://www.w3.org/2000/svg">
 <g fill-rule="evenodd" stroke-width="0">
  <path d="m31.2 63.2v-4a3 3 0 0 1 3-3h54a3 3 0 0 1 3 3v4a3 3 0 0 1-3 3h-54a3 3 0 0 1-3-3"/>
  <path d="m17.564 60.995 25.456 25.456 61.816-61.816a4 4 0 0 1 5.6569-2.9e-5l1.4142 1.4142a4 4 0 0 1-1e-5 5.6569l-68.887 68.887-32.527-32.527a4 4 0 0 1 7e-6 -5.6569l1.4142-1.4142a4 4 0 0 1 5.6569 0"/>
  <path d="m97.97 31.502a3 3 0 0 0 4.7e-5 -4.2426l-2.8285-2.8285a3 3 0 0 0-4.2426-4.7e-5l-29.698 29.699-29.698-29.698a3 3 0 0 0-4.2426-4.7e-5l-2.8285 2.8285a3 3 0 0 0-4.7e-5 4.2426l29.699 29.698-29.698 29.698a3 3 0 0 0-4.7e-5 4.2426l2.8285 2.8285a3 3 0 0 0 4.2426 4.7e-5l29.698-29.699 29.698 29.698a3 3 0 0 0 4.2426 4.7e-5l2.8285-2.8285a3 3 0 0 0 4.7e-5 -4.2426l-29.699-29.698 29.698-29.698"/>
 </g>
</svg>
