<?xml version="1.0" encoding="UTF-8"?>
<svg width="120.0mm" height="120.0mm" version="1.1" viewBox="1.2 1.2 120 120" xmlns="http://www.w3.org/2000/svg">
 <g fill-rule="evenodd" stroke-width="0">
  <path d="m97.97 31.502a3 3 0 0 0 4.7e-5 -4.2426l-2.8285-2.8285a3 3 0 0 0-4.2426-4.7e-5l-29.698 29.699-29.698-29.698a3 3 0 0 0-4.2426-4.7e-5l-2.8285 2.8285a3 3 0 0 0-4.7e-5 4.2426l29.699 29.698-29.698 29.698a3 3 0 0 0-4.7e-5 4.2426l2.8285 2.8285a3 3 0 0 0 4.2426 4.7e-5l29.698-29.699 29.698 29.698a3 3 0 0 0 4.2426 4.7e-5l2.8285-2.8285a3 3 0 0 0 4.7e-5 -4.2426l-29.699-29.698 29.698-29.698"/>
 </g>
</svg>
